<mxfile host="Electron" modified="2024-06-18T02:29:41.495Z" agent="Mozilla/5.0 (Windows NT 10.0; Win64; x64) AppleWebKit/537.36 (KHTML, like Gecko) draw.io/24.5.3 Chrome/124.0.6367.207 Electron/30.0.6 Safari/537.36" etag="0FiKj8mDQhf6egDlV3ZZ" version="24.5.3" type="device">
  <diagram name="Страница — 1" id="1Zj21WhxZpQqqzw-G1qv">
    <mxGraphModel dx="1036" dy="606" grid="1" gridSize="10" guides="1" tooltips="1" connect="1" arrows="1" fold="1" page="1" pageScale="1" pageWidth="827" pageHeight="1169" math="0" shadow="0">
      <root>
        <mxCell id="0" />
        <mxCell id="1" parent="0" />
        <mxCell id="oWVBIlFNYMVBXDcmuAIp-13" style="edgeStyle=orthogonalEdgeStyle;rounded=0;orthogonalLoop=1;jettySize=auto;html=1;exitX=1;exitY=0.25;exitDx=0;exitDy=0;fillColor=#f8cecc;strokeColor=#b85450;shape=flexArrow;endWidth=19.166666666666668;endSize=4.108333333333333;width=5;" edge="1" parent="1" source="oWVBIlFNYMVBXDcmuAIp-3" target="oWVBIlFNYMVBXDcmuAIp-2">
          <mxGeometry relative="1" as="geometry">
            <Array as="points">
              <mxPoint x="420" y="260" />
              <mxPoint x="420" y="200" />
              <mxPoint x="630" y="200" />
            </Array>
          </mxGeometry>
        </mxCell>
        <mxCell id="oWVBIlFNYMVBXDcmuAIp-24" value="Заказ завершен/провален" style="edgeLabel;html=1;align=center;verticalAlign=middle;resizable=0;points=[];" vertex="1" connectable="0" parent="oWVBIlFNYMVBXDcmuAIp-13">
          <mxGeometry x="0.026" y="-3" relative="1" as="geometry">
            <mxPoint x="-17" as="offset" />
          </mxGeometry>
        </mxCell>
        <mxCell id="oWVBIlFNYMVBXDcmuAIp-29" style="edgeStyle=orthogonalEdgeStyle;rounded=0;orthogonalLoop=1;jettySize=auto;html=1;exitX=0.75;exitY=1;exitDx=0;exitDy=0;entryX=0.75;entryY=0;entryDx=0;entryDy=0;shape=flexArrow;fillColor=#f8cecc;strokeColor=#b85450;width=5.833333333333334;endSize=8.666666666666668;" edge="1" parent="1" source="oWVBIlFNYMVBXDcmuAIp-1" target="oWVBIlFNYMVBXDcmuAIp-3">
          <mxGeometry relative="1" as="geometry" />
        </mxCell>
        <mxCell id="oWVBIlFNYMVBXDcmuAIp-30" value="Расходник&lt;br&gt;выдан" style="edgeLabel;html=1;align=center;verticalAlign=middle;resizable=0;points=[];" vertex="1" connectable="0" parent="oWVBIlFNYMVBXDcmuAIp-29">
          <mxGeometry x="-0.1361" y="1" relative="1" as="geometry">
            <mxPoint y="8" as="offset" />
          </mxGeometry>
        </mxCell>
        <mxCell id="oWVBIlFNYMVBXDcmuAIp-1" value="Подготовка расходников" style="rounded=0;whiteSpace=wrap;html=1;" vertex="1" parent="1">
          <mxGeometry x="130" y="40" width="120" height="80" as="geometry" />
        </mxCell>
        <mxCell id="oWVBIlFNYMVBXDcmuAIp-2" value="Тотализатор" style="rounded=0;whiteSpace=wrap;html=1;" vertex="1" parent="1">
          <mxGeometry x="570" y="60" width="120" height="80" as="geometry" />
        </mxCell>
        <mxCell id="oWVBIlFNYMVBXDcmuAIp-10" style="edgeStyle=orthogonalEdgeStyle;rounded=0;orthogonalLoop=1;jettySize=auto;html=1;entryX=0;entryY=0.5;entryDx=0;entryDy=0;fillColor=#dae8fc;strokeColor=#6c8ebf;" edge="1" parent="1" source="oWVBIlFNYMVBXDcmuAIp-3" target="oWVBIlFNYMVBXDcmuAIp-4">
          <mxGeometry relative="1" as="geometry" />
        </mxCell>
        <mxCell id="oWVBIlFNYMVBXDcmuAIp-19" value="Поток заказов" style="edgeLabel;html=1;align=center;verticalAlign=middle;resizable=0;points=[];" vertex="1" connectable="0" parent="oWVBIlFNYMVBXDcmuAIp-10">
          <mxGeometry x="-0.1304" relative="1" as="geometry">
            <mxPoint as="offset" />
          </mxGeometry>
        </mxCell>
        <mxCell id="oWVBIlFNYMVBXDcmuAIp-12" style="edgeStyle=orthogonalEdgeStyle;rounded=0;orthogonalLoop=1;jettySize=auto;html=1;fillColor=#f8cecc;strokeColor=#b85450;shape=flexArrow;width=5.833333333333334;endSize=6.108333333333333;exitX=0.25;exitY=0;exitDx=0;exitDy=0;entryX=0.25;entryY=1;entryDx=0;entryDy=0;" edge="1" parent="1" source="oWVBIlFNYMVBXDcmuAIp-3" target="oWVBIlFNYMVBXDcmuAIp-1">
          <mxGeometry relative="1" as="geometry" />
        </mxCell>
        <mxCell id="oWVBIlFNYMVBXDcmuAIp-25" value="Заказ ожидает&lt;br&gt;расходники" style="edgeLabel;html=1;align=center;verticalAlign=middle;resizable=0;points=[];" vertex="1" connectable="0" parent="oWVBIlFNYMVBXDcmuAIp-12">
          <mxGeometry x="0.0375" y="-2" relative="1" as="geometry">
            <mxPoint x="-22" y="3" as="offset" />
          </mxGeometry>
        </mxCell>
        <mxCell id="oWVBIlFNYMVBXDcmuAIp-17" style="edgeStyle=orthogonalEdgeStyle;rounded=0;orthogonalLoop=1;jettySize=auto;html=1;entryX=0;entryY=0.25;entryDx=0;entryDy=0;fillColor=#dae8fc;strokeColor=#6c8ebf;" edge="1" parent="1" source="oWVBIlFNYMVBXDcmuAIp-3" target="oWVBIlFNYMVBXDcmuAIp-5">
          <mxGeometry relative="1" as="geometry">
            <Array as="points">
              <mxPoint x="220" y="400" />
            </Array>
          </mxGeometry>
        </mxCell>
        <mxCell id="oWVBIlFNYMVBXDcmuAIp-18" value="Поток заказов" style="edgeLabel;html=1;align=center;verticalAlign=middle;resizable=0;points=[];" vertex="1" connectable="0" parent="oWVBIlFNYMVBXDcmuAIp-17">
          <mxGeometry x="-0.4762" relative="1" as="geometry">
            <mxPoint y="-10" as="offset" />
          </mxGeometry>
        </mxCell>
        <mxCell id="oWVBIlFNYMVBXDcmuAIp-20" style="edgeStyle=orthogonalEdgeStyle;rounded=0;orthogonalLoop=1;jettySize=auto;html=1;entryX=0;entryY=0.75;entryDx=0;entryDy=0;shape=flexArrow;fillColor=#f8cecc;strokeColor=#b85450;width=3.3333333333333335;endSize=6.7250000000000005;" edge="1" parent="1" source="oWVBIlFNYMVBXDcmuAIp-3" target="oWVBIlFNYMVBXDcmuAIp-4">
          <mxGeometry relative="1" as="geometry">
            <Array as="points">
              <mxPoint x="340" y="300" />
              <mxPoint x="340" y="300" />
            </Array>
          </mxGeometry>
        </mxCell>
        <mxCell id="oWVBIlFNYMVBXDcmuAIp-21" value="Заказ завершен/отменен/провален" style="edgeLabel;html=1;align=center;verticalAlign=middle;resizable=0;points=[];" vertex="1" connectable="0" parent="oWVBIlFNYMVBXDcmuAIp-20">
          <mxGeometry x="-0.0127" relative="1" as="geometry">
            <mxPoint as="offset" />
          </mxGeometry>
        </mxCell>
        <mxCell id="oWVBIlFNYMVBXDcmuAIp-3" value="Процесс обработки заказа" style="rounded=0;whiteSpace=wrap;html=1;" vertex="1" parent="1">
          <mxGeometry x="130" y="240" width="120" height="80" as="geometry" />
        </mxCell>
        <mxCell id="oWVBIlFNYMVBXDcmuAIp-11" style="edgeStyle=orthogonalEdgeStyle;rounded=0;orthogonalLoop=1;jettySize=auto;html=1;entryX=1;entryY=0.5;entryDx=0;entryDy=0;exitX=0.5;exitY=1;exitDx=0;exitDy=0;" edge="1" parent="1" source="oWVBIlFNYMVBXDcmuAIp-4" target="oWVBIlFNYMVBXDcmuAIp-5">
          <mxGeometry relative="1" as="geometry" />
        </mxCell>
        <mxCell id="oWVBIlFNYMVBXDcmuAIp-4" value="Проверка качества" style="rounded=0;whiteSpace=wrap;html=1;" vertex="1" parent="1">
          <mxGeometry x="590" y="240" width="120" height="80" as="geometry" />
        </mxCell>
        <mxCell id="oWVBIlFNYMVBXDcmuAIp-9" style="edgeStyle=orthogonalEdgeStyle;rounded=0;orthogonalLoop=1;jettySize=auto;html=1;shape=flexArrow;strokeColor=#b85450;fillColor=#f8cecc;entryX=0.131;entryY=0.998;entryDx=0;entryDy=0;entryPerimeter=0;width=4.166666666666667;endSize=4.608333333333333;" edge="1" parent="1" source="oWVBIlFNYMVBXDcmuAIp-5" target="oWVBIlFNYMVBXDcmuAIp-3">
          <mxGeometry relative="1" as="geometry" />
        </mxCell>
        <mxCell id="oWVBIlFNYMVBXDcmuAIp-16" value="Изменился тип услуги&lt;br&gt;Заказ оплачен" style="edgeLabel;html=1;align=center;verticalAlign=middle;resizable=0;points=[];" vertex="1" connectable="0" parent="oWVBIlFNYMVBXDcmuAIp-9">
          <mxGeometry x="0.4782" y="-1" relative="1" as="geometry">
            <mxPoint as="offset" />
          </mxGeometry>
        </mxCell>
        <mxCell id="oWVBIlFNYMVBXDcmuAIp-5" value="Управление личным кабинетом" style="rounded=0;whiteSpace=wrap;html=1;" vertex="1" parent="1">
          <mxGeometry x="294" y="380" width="120" height="80" as="geometry" />
        </mxCell>
        <mxCell id="oWVBIlFNYMVBXDcmuAIp-7" style="edgeStyle=orthogonalEdgeStyle;rounded=0;orthogonalLoop=1;jettySize=auto;html=1;exitX=0.25;exitY=0;exitDx=0;exitDy=0;entryX=0.25;entryY=1;entryDx=0;entryDy=0;fillColor=#f8cecc;strokeColor=#b85450;shape=flexArrow;strokeWidth=1;width=5;endSize=4.775;" edge="1" parent="1" source="oWVBIlFNYMVBXDcmuAIp-6" target="oWVBIlFNYMVBXDcmuAIp-5">
          <mxGeometry relative="1" as="geometry" />
        </mxCell>
        <mxCell id="oWVBIlFNYMVBXDcmuAIp-15" value="Отправить кандидата &lt;br&gt;в общий пул воркеров" style="edgeLabel;html=1;align=center;verticalAlign=middle;resizable=0;points=[];" vertex="1" connectable="0" parent="oWVBIlFNYMVBXDcmuAIp-7">
          <mxGeometry x="0.1278" y="3" relative="1" as="geometry">
            <mxPoint as="offset" />
          </mxGeometry>
        </mxCell>
        <mxCell id="oWVBIlFNYMVBXDcmuAIp-6" value="Отбор кандидатов" style="rounded=0;whiteSpace=wrap;html=1;" vertex="1" parent="1">
          <mxGeometry x="294" y="580" width="120" height="80" as="geometry" />
        </mxCell>
        <mxCell id="oWVBIlFNYMVBXDcmuAIp-22" style="edgeStyle=orthogonalEdgeStyle;rounded=0;orthogonalLoop=1;jettySize=auto;html=1;entryX=0.25;entryY=1;entryDx=0;entryDy=0;fillColor=#dae8fc;strokeColor=#6c8ebf;exitX=1;exitY=0.25;exitDx=0;exitDy=0;" edge="1" parent="1" source="oWVBIlFNYMVBXDcmuAIp-5" target="oWVBIlFNYMVBXDcmuAIp-4">
          <mxGeometry relative="1" as="geometry">
            <mxPoint x="430" y="400" as="sourcePoint" />
            <mxPoint x="770" y="400" as="targetPoint" />
          </mxGeometry>
        </mxCell>
        <mxCell id="oWVBIlFNYMVBXDcmuAIp-23" value="Передача данных&lt;br&gt;по клиентам" style="edgeLabel;html=1;align=center;verticalAlign=middle;resizable=0;points=[];" vertex="1" connectable="0" parent="oWVBIlFNYMVBXDcmuAIp-22">
          <mxGeometry x="-0.1304" relative="1" as="geometry">
            <mxPoint as="offset" />
          </mxGeometry>
        </mxCell>
        <mxCell id="oWVBIlFNYMVBXDcmuAIp-33" style="edgeStyle=orthogonalEdgeStyle;rounded=0;orthogonalLoop=1;jettySize=auto;html=1;entryX=0.25;entryY=0;entryDx=0;entryDy=0;shape=flexArrow;fillColor=#f8cecc;strokeColor=#b85450;width=3.3333333333333335;endSize=6.7250000000000005;exitX=1;exitY=1;exitDx=0;exitDy=0;" edge="1" parent="1" source="oWVBIlFNYMVBXDcmuAIp-3" target="oWVBIlFNYMVBXDcmuAIp-5">
          <mxGeometry relative="1" as="geometry">
            <mxPoint x="260" y="310" as="sourcePoint" />
            <mxPoint x="600" y="310" as="targetPoint" />
            <Array as="points">
              <mxPoint x="250" y="310" />
              <mxPoint x="324" y="310" />
            </Array>
          </mxGeometry>
        </mxCell>
        <mxCell id="oWVBIlFNYMVBXDcmuAIp-34" value="Заказ завершен/отменен/провален" style="edgeLabel;html=1;align=center;verticalAlign=middle;resizable=0;points=[];" vertex="1" connectable="0" parent="oWVBIlFNYMVBXDcmuAIp-33">
          <mxGeometry x="-0.0127" relative="1" as="geometry">
            <mxPoint x="38" y="30" as="offset" />
          </mxGeometry>
        </mxCell>
      </root>
    </mxGraphModel>
  </diagram>
</mxfile>
